<?xml version="1.0" encoding="UTF-8" standalone="no"?>
<svg
   version="1.1"
   id="Layer_1"
   x="0px"
   y="0px"
   viewBox="0 0 420.00001 799.99999"
   xml:space="preserve"
   width="420"
   height="800"
   xmlns="http://www.w3.org/2000/svg"
   xmlns:svg="http://www.w3.org/2000/svg"><defs
   id="defs1">
	
	
	
	
	
	
	
	
	
	
	
	
	
	
	
	
	
	
	
	
	
	
	
	
	
	
	
	
	
	
	
	
	
	
	
	
	
	
	
	
	
	
	
	
	
	
	
	
	
	
	
	
	
	
	
	
	
	
	
	
	
	
	
	
	
	
	
</defs>
<rect
   style="fill:#000000;stroke-width:41.3492;stroke-linecap:round;stroke-linejoin:round"
   id="rect1"
   width="419.80338"
   height="800"
   x="0"
   y="0" /><rect
   style="opacity:1;fill:#ff0000;stroke:none;stroke-width:1.50413;stroke-linecap:round;stroke-linejoin:round"
   id="rect6"
   width="129.87791"
   height="118.21973"
   x="144.25623"
   y="0.076534793" /><rect
   style="fill:#ff0000;stroke:none;stroke-width:2.11199;stroke-linecap:round;stroke-linejoin:round"
   id="rect6-18"
   width="383.22507"
   height="78.992271"
   x="17.611595"
   y="716.76483" /><rect
   style="fill:#ff0000;stroke:none;stroke-width:2.5133;stroke-linecap:round;stroke-linejoin:round"
   id="rect6-1"
   width="251.17102"
   height="170.67824"
   x="86.828972"
   y="106.553" /><rect
   style="fill:#ff0000;stroke:none;stroke-width:2.43465;stroke-linecap:round;stroke-linejoin:round"
   id="rect6-1-2"
   width="256"
   height="157.14015"
   x="82"
   y="316.59961" /><rect
   style="fill:#ff0000;stroke:none;stroke-width:1.04042;stroke-linecap:round;stroke-linejoin:round"
   id="rect6-1-2-8"
   width="126.40877"
   height="58.116749"
   x="152"
   y="264" /><circle
   style="opacity:1;fill:#ff0000;stroke:none;stroke-width:1.59224;stroke-linecap:round;stroke-linejoin:round"
   id="path25"
   cx="209.67099"
   cy="599.74835"
   r="100.70423" /><g
   id="g1"
   transform="matrix(0.59437213,0,0,0.59481867,6.9900969,463.23747)"
   style="fill:#ffffff">
	<path
   d="m 341,96.4 c -44.5,0 -83.9,21.9 -108.1,55.5 -7.9,11 -14.2,23.2 -18.5,36.4 h 21.6 52.1 v 90.1 h 39.3 v -24.3 h 22.7 v 87.8 c -3,0.3 -6.1,0.4 -9.2,0.4 -62.2,0 -112.8,-50.6 -112.8,-112.8 0,-10.3 1.4,-20.2 4,-29.6 h -21 c -2.2,9.5 -3.3,19.4 -3.3,29.6 0,73.4 59.7,133.1 133.1,133.1 3.1,0 6.1,-0.1 9.2,-0.3 1.7,-0.1 3.4,-0.3 5.1,-0.5 0.1,0 0.3,0 0.4,0 11.8,-1.3 23.1,-4.1 33.8,-8.3 v 0 c 0,0 0,0 0,0 V 254.1 H 428 V 217.7 H 327.5 V 188.2 H 366 V 151.8 H 259.3 c 20.5,-21.6 49.6,-35.1 81.7,-35.1 62.2,0 112.8,50.6 112.8,112.8 0,40.1 -21,75.4 -52.6,95.4 v 23.4 c 43.3,-22 73,-67 73,-118.8 C 474.1,156.1 414.4,96.4 341,96.4 Z"
   id="path1"
   style="fill:#ffffff" />
</g>
<text
   xml:space="preserve"
   style="font-size:79.9332px;line-height:1.25;font-family:sans-serif;text-align:center;text-anchor:middle;fill:#f9f9f9;stroke-width:2.4979"
   x="209.31973"
   y="786.22528"
   id="text1"><tspan
     id="tspan1"
     x="209.31973"
     y="786.22528"
     style="stroke-width:2.4979">TTIHP25A</tspan></text><g
   id="g6"
   transform="matrix(1.8744605,0,0,1.8744605,448.40151,11.734285)"><g
     id="g3"><path
       fill="#ffffff"
       stroke="#ffffff"
       stroke-width="0.0312366"
       d="m -179.05668,59.261427 c 1.79827,-0.01998 3.62984,-0.03996 5.46108,-0.05994 -0.02,4.296864 -0.0396,8.593062 0.008,12.921896 3.52128,-3.901579 7.04189,-7.803156 10.52987,-11.737702 0.52782,-0.438245 0.88514,-1.241805 1.65107,-1.250464 1.96411,-0.08825 3.96319,-0.04329 5.96093,-0.06494 -4.24458,4.775404 -8.4875,9.551141 -12.79935,14.293576 4.51599,4.846003 9.09758,9.658704 13.51433,14.572641 -2.36472,0.02564 -4.72811,0.117887 -7.0935,0.04462 -1.03801,-0.488197 -1.64875,-1.54751 -2.42334,-2.338083 -3.16695,-3.329129 -6.23566,-6.792462 -9.46822,-10.020689 -0.0546,4.129692 -0.043,8.226416 -0.0646,12.355775 -1.83157,0.02031 -3.66281,0.03996 -5.52702,0.06061 0.16151,-9.593766 0.0892,-19.184202 0.25109,-28.777302 z"
       id="path42" /><path
       fill="#ffffff"
       stroke="#ffffff"
       stroke-width="0.0312366"
       d="m -149.91839,59.076272 c 6.45945,-0.137201 12.95587,0.02464 19.44862,-0.07892 0.015,1.398321 -0.0696,2.764339 -0.0882,4.130691 -4.66151,0.08392 -9.32436,0.03497 -13.95291,0.08558 -0.04,2.464628 0.02,4.928922 0.0137,7.393217 4.66284,-0.01798 9.29139,-0.06827 13.9539,-0.08625 0.0156,1.432288 -0.003,2.864576 0.0127,4.262897 -4.66185,0.01765 -9.3237,0.06827 -13.98588,0.08625 0.0649,2.863245 0.0293,5.728154 0.0266,8.592064 4.66252,-0.01798 9.32503,-0.06827 14.02018,-0.08625 -0.0173,1.465256 -10e-4,2.963481 -0.018,4.429403 -6.46011,0.1039 -12.95419,0.07493 -19.44794,0.14586 0.12754,-9.626402 0.0223,-19.249806 0.0173,-28.874542 z"
       id="path43" /><path
       fill="#ffffff"
       stroke="#ffffff"
       stroke-width="0.0312366"
       d="m -122.27799,59.007671 c 6.42815,0.02964 12.85363,-0.140531 19.31741,0.05528 -0.0197,1.332385 -0.005,2.697404 0.0103,4.06309 -4.66151,0.05029 -9.32502,0.0017 -13.9519,0.05228 0.026,2.463629 0.0196,4.928922 0.0463,7.392551 4.66152,-0.05095 9.29106,-0.03463 13.95324,-0.05228 -0.0177,1.398987 -0.003,2.797308 0.0123,4.195961 -4.62821,0.01765 -9.29039,0.134871 -13.9196,0.01898 0.0313,2.86391 0.0286,5.727821 0.0606,8.592064 4.66018,-0.117887 9.29106,0.03164 13.95257,0.01432 0.0163,1.497892 0.0333,2.962816 0.0163,4.462372 -6.46112,0.0033 -12.88793,0.0073 -19.34805,0.04496 -0.0719,-9.624737 -0.14419,-19.248141 -0.14952,-28.839576 z"
       id="path44" /><path
       id="path45"
       d="m -92.343803,59.024496 c -0.86267,0.0021 -1.72613,0.0082 -2.59179,0.01758 0.13787,9.590103 0.14305,19.180526 0.28125,28.736328 1.96611,0.01199 3.89697,0.124263 5.82812,0.07031 0,-3.097352 -6.6e-4,-6.161126 -0.10156,-9.257812 2.49693,-0.09358 5.09863,0.278762 7.48633,-0.580078 1.55917,-0.549804 3.01822,-1.364868 4.20508,-2.509766 3.65782,-3.569898 3.48421,-10.129166 -0.1836,-13.61914 -1.91948,-1.810924 -4.5274,-2.849284 -7.1582,-2.820312 -2.59875,-0.02148 -5.1776,-0.0434 -7.76563,-0.03711 z m 5.02149,4.029297 c 1.82855,0.0067 3.67317,0.185864 5.13476,1.34375 3.08936,2.297455 2.3489,7.868456 -1.26562,9.273437 -1.75931,0.585437 -3.69387,0.20662 -5.52344,0.326172 -0.0396,-3.629174 -0.04738,-7.2594 -0.1543,-10.921875 0.5911,-0.0064 1.19908,-0.02371 1.8086,-0.02148 z"
       style="fill:#f9f9f9" /><path
       fill="#ffffff"
       stroke="#ffffff"
       stroke-width="0.0312366"
       d="m -181.53696,106.54558 c 3.89259,-3.43869 9.47255,-4.76608 14.4814,-3.55491 3.40472,0.72863 6.45579,2.59384 8.74791,5.16636 -1.31806,1.24614 -2.67009,2.4603 -3.98816,3.7737 -2.22153,-2.17424 -5.13772,-3.90723 -8.33431,-3.80633 -4.4304,-0.11789 -8.82684,2.86124 -10.0117,7.2034 -0.96274,3.34045 0.21147,7.15844 2.83328,9.42726 3.29682,3.02742 8.56409,3.53693 12.40306,1.23015 1.32372,-0.74762 2.41068,-1.82525 3.39773,-2.96748 1.2801,1.31773 2.42766,2.73737 3.67413,4.08873 -3.16296,3.06439 -7.19907,5.541 -11.69341,5.72283 -5.02483,0.32135 -10.17721,-1.82092 -13.35049,-5.7488 -2.19389,-2.67343 -3.39773,-6.12411 -3.30215,-9.58844 -0.0127,-4.1963 1.94179,-8.28003 5.14271,-10.94647 z"
       id="path47" /><path
       id="path48"
       d="m -139.27934,103.18661 c -1.46492,0.0163 -2.93028,-1.3e-4 -4.39453,0.0488 -4.49068,9.67403 -9.14834,19.2478 -13.63868,28.95313 2.13194,0.0106 4.23015,-0.0112 6.32813,-0.002 1.01103,-1.94214 1.98698,-3.91782 2.89844,-5.89258 4.66151,-0.0843 9.29356,0.0666 13.95507,0.0156 0.98772,1.95379 2.00713,3.87325 3.09375,5.75977 1.96411,-0.022 3.92946,0.0254 5.89258,-0.0625 -4.66651,-9.64039 -9.40132,-19.24753 -14.13476,-28.82031 z m -2.00586,8.41406 c 1.63376,3.24554 3.1352,6.5601 4.73633,9.80664 -3.09736,0.0676 -6.22754,0.0351 -9.32422,0.0684 1.49556,-3.31381 3.05936,-6.56119 4.58789,-9.875 z"
       style="fill:#ffffff" /><path
       fill="#ffffff"
       stroke="#ffffff"
       stroke-width="0.0312366"
       d="m -120.83072,103.05161 c 1.99741,-0.0549 3.99816,0.0902 5.99623,0.10124 0.0183,7.82613 0.13787,15.6516 0.12155,23.44444 4.56261,-0.0833 9.09358,0.0676 13.65419,0.018 -0.0123,1.79793 0.007,3.5629 0.026,5.36084 -6.55802,0.13853 -13.0884,0.009 -19.64842,0.0479 -0.0716,-9.65771 -0.0779,-19.31508 -0.14953,-28.97245 z"
       id="path49" /><path
       fill="#ffffff"
       stroke="#ffffff"
       stroke-width="0.0312366"
       d="m -95.187403,103.07193 c 2.09832,0.01 4.1953,-0.0796 6.29461,0.0636 2.61582,4.63387 5.26327,9.26741 7.87842,13.90195 2.58018,-4.65752 5.2949,-9.28373 7.94102,-13.90795 2.03205,-0.0223 4.06376,-0.0113 6.12877,-0.0336 0.1039,9.5568 0.14253,19.11361 0.21213,28.67107 -1.76397,0.0536 -3.56357,0.007 -5.32754,0.0589 -0.034,-6.1281 -10e-4,-12.25653 -0.13454,-18.349 -3.01143,4.76208 -5.78809,9.65471 -8.73392,14.44909 -3.01544,-4.66218 -5.69885,-9.52949 -8.58175,-14.29258 0.032,6.09314 0.0996,12.18727 0.13188,18.24811 -1.86421,0.0536 -3.76138,0.0746 -5.62659,0.0613 -0.038,-9.62407 -0.14286,-19.24714 -0.18249,-28.87088 z"
       id="path50" /></g><g
     id="g5"
     transform="translate(148.53511,57.462803)"><path
       id="path1-1"
       d="m -275.46875,-58.914062 c -0.75348,-0.0044 -1.50996,0.01985 -2.27539,0.07812 0.61275,1.192519 1.29046,2.383222 1.83594,3.609376 -0.90413,-0.456562 -1.74112,-1.011563 -2.61328,-1.56836 -0.1179,1.366351 -0.10339,2.731251 -0.0215,4.128906 0.82787,-0.442241 1.62221,-0.918035 2.38281,-1.392578 0.0403,0.632724 0.0477,1.29925 0.0547,1.931641 -0.8272,0.475876 -1.82392,0.786709 -2.31445,1.658203 -0.94975,1.441946 -0.32592,3.600004 1.3125,4.248047 1.94347,1.111264 4.7888,-0.584736 4.59765,-2.880859 -0.0489,-1.397988 -1.22504,-2.285279 -2.36328,-2.873047 -0.007,-0.632724 -0.0135,-1.230989 -0.0195,-1.830079 0.77059,0.424591 1.50732,0.882579 2.31055,1.240235 0.0859,-1.266448 0.10559,-2.564962 0.0586,-3.830078 -0.86118,0.442241 -1.68918,0.849925 -2.58398,1.226562 0.5851,-1.238807 1.30582,-2.411916 1.89258,-3.65039 -0.75028,-0.05877 -1.50043,-0.09134 -2.25391,-0.0957 z m -0.69531,7.720703 c 0.007,0.599423 0.013,1.199503 -0.0137,1.765625 -0.53482,-0.194146 -1.06837,-0.388121 -1.60352,-0.615235 0.52849,-0.405277 1.05473,-0.777748 1.61719,-1.15039 z m 1.30273,0.185547 c 0.43658,0.395287 0.8734,0.823698 1.27735,1.251953 -0.43192,0.137867 -0.86238,0.276096 -1.29297,0.447265 -0.006,-0.565789 -0.0117,-1.132766 0.0156,-1.699218 z m -1.31836,3.054687 c 0.80856,-2.13e-4 1.59287,0.186059 2.19336,0.832031 -1.32672,0.514505 -2.85917,0.498638 -3.83789,-0.65625 0.52681,-0.08699 1.09131,-0.175636 1.64453,-0.175781 z"
       style="fill:#ffffff" /><path
       fill="#ffffff"
       stroke="#ffffff"
       stroke-width="0.0312366"
       d="m -282.15485,-47.930533 c 0.7263,-0.607415 2.09765,-0.05628 2.07467,0.909791 0.11056,0.898136 -0.91579,1.542182 -1.71835,1.250796 -1.06697,-0.121217 -1.31706,-1.683713 -0.35632,-2.160587 z"
       id="path4" /><path
       fill="#ffffff"
       stroke="#ffffff"
       stroke-width="0.0312366"
       d="m -271.50044,-48.080389 c 0.92411,-0.77592 2.50426,0.439244 1.88219,1.511878 -0.35632,0.936432 -1.95445,1.020352 -2.29846,0.02531 -0.40527,-0.529157 -0.0463,-1.198513 0.41627,-1.537188 z"
       id="path6" /><path
       fill="#ffffff"
       stroke="#ffffff"
       stroke-width="0.0312366"
       d="m -285.81033,-47.224546 c 0.82587,-0.575446 2.16691,0.209132 1.97743,1.210835 -0.15718,0.800896 -1.21517,1.478244 -1.92049,0.953415 -0.93676,-0.35599 -0.91911,-1.754977 -0.0569,-2.16425 z"
       id="path7" /><path
       fill="#ffffff"
       stroke="#ffffff"
       stroke-width="0.0312366"
       d="m -267.49263,-47.091341 c 1.12658,-0.445904 2.41101,1.172538 1.28709,1.984091 -0.52549,0.672019 -1.59346,0.517502 -2.00074,-0.177496 -0.53981,-0.627063 -0.0173,-1.599128 0.71365,-1.806595 z"
       id="path8" /><path
       fill="#ffffff"
       stroke="#ffffff"
       stroke-width="0.0312366"
       d="m -289.78118,-44.849831 c 0.11955,-1.23348 2.38238,-1.424296 2.43033,-0.05994 0.17583,0.830201 -0.68667,1.172871 -1.21483,1.578481 -0.50418,-0.427255 -1.34038,-0.751277 -1.2155,-1.518538 z"
       id="path9" /><path
       fill="#ffffff"
       stroke="#ffffff"
       stroke-width="0.0312366"
       d="m -264.11421,-45.69635 c 0.66202,-0.340006 1.76596,0.04762 1.74132,0.847185 0.24576,1.095612 -1.24547,1.844891 -2.01872,1.087286 -0.77126,-0.424258 -0.4519,-1.660069 0.2774,-1.934471 z"
       id="path10" /><path
       fill="#ffffff"
       stroke="#ffffff"
       stroke-width="0.0312366"
       d="m -295.37946,-39.060071 c 4.69349,-3.249539 10.16555,-5.373494 15.78381,-6.267301 0.85651,2.188893 1.68005,4.411088 2.07201,6.737849 -0.43259,0.07126 -0.8645,0.109228 -1.26345,0.180492 -0.38696,-1.894176 -0.94076,-3.787021 -1.69271,-5.543331 -6.37952,1.301747 -12.54459,4.066753 -17.39159,8.482503 -0.33535,-0.196478 -0.67102,-0.425591 -1.00603,-0.621735 1.01968,-1.176535 2.24151,-2.08899 3.49796,-2.968477 z"
       id="path11" /><path
       fill="#ffffff"
       stroke="#ffffff"
       stroke-width="0.0312366"
       d="m -276.39706,-45.195499 c 1.45726,-0.715311 2.51625,1.703361 0.95641,2.219864 -1.42496,0.615407 -2.38237,-1.604789 -0.95641,-2.219864 z"
       id="path12" /><path
       fill="#ffffff"
       stroke="#ffffff"
       stroke-width="0.0312366"
       d="m -272.1335,-45.108915 c 6.93932,1.122586 13.46871,4.31518 18.74763,8.920081 -0.26475,0.302376 -0.52683,0.604751 -0.82288,0.941427 -4.87564,-4.276217 -10.8359,-7.208395 -17.17813,-8.504481 -0.71298,1.805928 -1.32439,3.644159 -1.738,5.514026 -0.39994,-0.06261 -0.83386,-0.124214 -1.23381,-0.186154 0.47521,-2.302784 1.2821,-4.543294 2.22519,-6.684899 z"
       id="path13" /><path
       fill="#ffffff"
       stroke="#ffffff"
       stroke-width="0.0312366"
       d="m -292.66374,-43.519778 c -0.007,-0.66536 0.89148,-0.742286 1.3537,-1.046993 0.33734,0.362651 0.64038,0.725302 0.97806,1.087953 -0.36165,0.403945 -0.55314,1.204841 -1.21983,1.145564 -0.63206,0.04029 -1.33804,-0.517835 -1.11193,-1.186524 z"
       id="path14" /><path
       fill="#ffffff"
       stroke="#ffffff"
       stroke-width="0.0312366"
       d="m -261.03018,-43.865113 c 0.59709,-0.10723 1.39565,-0.248427 1.70269,0.413935 0.43825,0.494857 -0.0177,1.432621 -0.64971,1.472583 -0.66402,0.207134 -1.0713,-0.421261 -1.50755,-0.749612 0.13021,-0.267076 0.32403,-0.835862 0.45457,-1.136906 z"
       id="path15" /><path
       fill="#ffffff"
       stroke="#ffffff"
       stroke-width="0.0312366"
       d="m -295.87265,-41.519703 c 0.45756,-0.838194 1.28676,-1.079961 2.18856,-0.890144 0.0396,0.565789 0.013,1.165878 -0.0146,1.732333 -0.89714,0.209465 -1.6987,-0.01498 -2.17391,-0.842189 z"
       id="path16" /><path
       fill="#ffffff"
       stroke="#ffffff"
       stroke-width="0.0312366"
       d="m -277.22127,-41.390494 c 0.4569,-0.904463 1.2861,-1.112929 2.22087,-0.890477 0.007,0.566788 0.0123,1.132577 -0.0143,1.732666 -0.89714,0.209132 -1.731,0.01865 -2.20655,-0.842189 z"
       id="path17" /><path
       fill="#ffffff"
       stroke="#ffffff"
       stroke-width="0.0312366"
       d="m -257.81428,-42.168745 c 1.42496,-0.681345 2.11696,1.742323 0.5861,1.858877 -1.19451,0.345668 -1.68238,-1.546844 -0.5861,-1.858877 z"
       id="path18" /><path
       fill="#ffffff"
       stroke="#ffffff"
       stroke-width="0.0312366"
       d="m -297.92634,-40.464386 c 0.63306,-0.007 1.26845,0.218457 1.80493,0.57911 -0.26241,0.368978 -0.49119,0.771923 -0.78724,1.1076 -0.46622,-0.02797 -0.9008,-0.189484 -1.33538,-0.285059 0.0949,-0.467217 0.19015,-0.934101 0.31769,-1.401651 z"
       id="path19" /><path
       id="path20"
       d="m -290.36523,-40.380859 c -1.34071,2.245505 -1.54232,5.112676 -0.38477,7.498047 -1.50588,-0.649043 -3.37277,-0.796719 -4.6582,0.382812 -2.51125,1.859211 -1.76437,6.081687 0.91406,7.384766 -0.0153,-1.365019 -0.27062,-3.293887 1.25391,-3.976563 1.5222,-0.849516 3.43627,0.49466 3.38867,2.193359 0.29771,2.894215 -2.94758,4.660977 -5.48047,4.421876 -3.00045,-0.266743 -5.1298,-3.00775 -5.72656,-5.832032 1.47091,0.449568 2.67878,1.370574 3.91992,2.189453 -0.35832,-2.360395 -1.04967,-4.684147 -1.70703,-6.974609 -0.92278,0.909458 -1.8767,1.852394 -3.10352,2.365234 0.64871,-1.538519 1.63158,-2.948528 2.38086,-4.455078 -1.6291,0.251091 -3.22075,0.732793 -4.78125,1.150391 0.20947,0.89647 0.55064,1.793316 0.75977,2.689453 0.24443,0.96374 -0.14342,1.932368 -0.16602,2.898438 0.0802,1.264117 1.58376,1.715829 1.79688,2.945312 0.34667,1.262119 0.65929,2.523469 0.97265,3.751953 0.55247,1.75964 -0.4608,3.436302 -0.4082,5.167969 1.14423,1.152224 2.28987,2.337544 3.59961,3.322266 0.96474,-0.07726 1.82423,-0.551823 2.7207,-0.794922 4.81403,-1.384334 9.80339,-1.938644 14.79492,-2.292969 8.68264,-0.860505 17.55666,0.474121 25.7168,3.548828 1.21683,-1.445275 2.46591,-2.824921 3.64844,-4.269531 -0.28239,-1.429624 -0.82942,-2.821233 -0.94532,-4.285156 0.38497,-1.369682 0.90152,-2.740746 1.38672,-4.078126 0.32135,-1.036001 1.41507,-1.614955 1.70313,-2.683593 0.12486,-0.73396 -0.1504,-1.497175 -0.0918,-2.230469 0.32236,-1.036336 0.81155,-2.007064 1.20117,-3.009766 -1.33704,-0.419263 -2.70716,-0.803066 -4.07617,-1.121093 0.48253,1.42696 0.96443,2.885821 1.11328,4.416015 -0.80655,-0.789906 -1.5483,-1.646398 -2.32422,-2.503906 -0.74495,1.906165 -1.52375,3.845871 -2.00195,5.849609 1.26245,-0.314031 2.45608,-0.860069 3.6836,-1.30664 -0.70632,2.438986 -2.31099,4.854398 -4.86719,5.582031 -2.12396,0.721972 -4.76536,-0.114421 -5.91992,-2.132812 -0.77958,-1.257456 -0.53208,-3.059287 0.58984,-4.070313 0.65903,-0.674018 2.0238,-0.621366 2.5,0.273437 0.71036,1.024348 0.0585,2.262674 -0.0957,3.363282 1.25912,-0.646378 2.61573,-1.358789 3.20117,-2.730469 0.81322,-1.806927 0.41523,-4.534588 -1.69141,-5.210937 -1.43662,-0.583107 -2.8254,0.231045 -4.01758,0.943359 1.27115,-2.577852 1.33739,-5.675919 0.043,-8.259766 -2.21088,1.822579 -3.57783,4.768038 -3.11328,7.626953 -0.57311,-0.659366 -1.14942,-1.419028 -2.01758,-1.675781 -1.46992,-0.316695 -3.25889,0.433281 -3.77539,1.9375 -0.48187,1.60379 -0.12851,3.46672 1.08399,4.685547 0.45656,-0.870828 0.60966,-2.138087 1.63867,-2.482422 1.12725,-0.411937 2.23918,0.607997 2.41601,1.638672 0.42326,2.226523 -1.51653,4.479596 -3.74804,4.503906 -1.99742,0.08825 -4.13948,-0.888358 -5.0586,-2.710937 -0.50952,-0.860172 -0.52095,-1.891352 -0.53125,-2.857422 0.93777,0.489862 1.81001,1.14713 2.7168,1.769531 0.20881,-2.233184 0.25106,-4.500282 0.16016,-6.730469 -1.12591,0.545142 -2.11746,1.35562 -3.17578,2 0.51517,-1.570822 1.16656,-3.108533 1.64843,-4.679687 -1.83257,-0.11289 -3.69796,-0.125546 -5.5625,-0.07227 0.48453,1.660069 1.20135,3.25042 1.68555,4.910156 -0.97473,-0.755273 -1.84993,-1.611815 -2.79102,-2.40039 -0.20848,2.232851 -0.3179,4.498663 -0.19335,6.728516 1.05931,-0.577777 2.05101,-1.253746 3.21289,-1.666016 -0.21879,1.401318 -0.66886,2.771457 -1.65625,3.814453 -1.67938,1.783617 -4.50598,2.246409 -6.71485,1.205078 -1.47159,-0.583439 -2.55412,-2.203228 -2.30469,-3.804687 0.0856,-1.266448 1.53931,-2.348056 2.74414,-1.794922 1.10463,0.487531 1.01985,1.887868 1.39649,2.849609 0.98905,-0.943426 2.00847,-2.122013 1.89258,-3.585937 0.2118,-1.933473 -1.8079,-3.842803 -3.73438,-3.421875 -0.7969,0.175165 -1.42467,0.714288 -2.05273,1.1875 0.20381,-2.700068 -0.95712,-5.351094 -3.00781,-7.09375 z m 14.29296,8.576171 c 0.38436,-0.01283 0.75734,0.546293 0.39649,0.888672 -0.46122,0.471213 -1.20189,-0.287984 -0.70703,-0.726562 0.0933,-0.11029 0.20292,-0.158516 0.31054,-0.16211 z m -26.73437,1.84961 c 0.60808,0.759269 0.78532,1.690899 0.66211,2.625 -0.80656,-0.657367 -0.9848,-1.6556 -0.66211,-2.625 z m 52.82031,0.255859 c 0.30504,0.529157 0.4134,1.128139 0.48633,1.726563 -0.36298,0.237438 -0.76202,0.476118 -1.125,0.71289 0.0566,-0.8665 0.28035,-1.669861 0.63867,-2.439453 z m -26.33789,6.316407 c 0.44058,0.760933 0.88069,1.521602 1.32227,2.283203 -0.42393,0.837194 -0.88133,1.640655 -1.33789,2.478515 -0.44224,-0.794568 -0.85022,-1.588576 -1.25782,-2.382812 0.42392,-0.804558 0.84818,-1.574681 1.27344,-2.378906 z m -6.08789,0.732421 c 0.50118,0.127544 1.00215,0.287942 1.4707,0.482422 -0.22978,0.368978 -0.45906,0.737778 -0.6875,1.107422 -0.33435,-0.129875 -0.63474,-0.25913 -0.96875,-0.388672 0.0623,-0.400614 0.12428,-0.800224 0.18555,-1.201172 z m 10.65625,0.01563 c 0.40062,-0.0043 0.79984,0.02648 1.23242,0.02148 0.005,0.433249 0.0435,0.865911 0.0488,1.298828 -0.43392,0.0043 -0.86658,0.04245 -1.29883,0.08008 -0.006,-0.466218 -0.01,-0.933507 0.0176,-1.400391 z m -15.95117,0.152344 c 1.61405,-0.01761 3.34132,0.918686 2.96094,2.720703 -0.80655,2.340747 -4.69757,2.75054 -5.98633,0.59961 -0.57977,-1.258788 0.40433,-2.502263 1.53125,-2.980469 0.43058,-0.221204 0.95612,-0.333974 1.49414,-0.339844 z m 22.26172,0.210938 c 1.68333,0.003 3.54239,1.114684 3.31836,2.929687 -0.83919,2.506588 -5.03882,2.253731 -6.0625,0.0332 -0.4792,-1.260121 0.37231,-2.502806 1.63476,-2.783203 0.34217,-0.12232 0.72092,-0.180382 1.10938,-0.179687 z m -29.59961,1.724609 c 0.66702,0.125546 1.03962,0.552867 1.24609,1.183594 -0.36432,0.137534 -0.72944,0.308013 -1.09375,0.478515 -0.1352,-0.165174 -0.47049,-0.460825 -0.63867,-0.625 0.12988,-0.268741 0.35612,-0.769367 0.48633,-1.037109 z m 36.26953,0.03711 c 0.46622,0.02764 0.93198,0.02181 1.36523,0.05078 0.041,0.66536 -0.22055,1.234741 -0.84961,1.507812 -0.1685,-0.198143 -0.50542,-0.561055 -0.64062,-0.726562 0.0313,-0.199142 0.0937,-0.599257 0.125,-0.832032 z m -22.30469,0.941407 c 0.13654,0.298712 0.27429,0.564568 0.41016,0.863281 -0.19715,0.201806 -0.42947,0.403331 -0.62696,0.605469 -0.30137,-0.09657 -0.63416,-0.227645 -0.93554,-0.324219 0.029,-0.366647 0.0596,-0.699426 0.0879,-1.066406 0.33301,-0.03696 0.69847,-0.04049 1.06445,-0.07813 z m 9.32813,0.232421 c 0.26741,0.130542 0.80352,0.422527 1.07226,0.552735 -0.26141,0.435914 -0.52503,0.839574 -0.78711,1.242187 -0.26808,-0.197477 -0.73788,-0.558716 -0.97265,-0.755859 0.22911,-0.335344 0.45872,-0.703053 0.6875,-1.039063 z m 18.81836,0.160157 c 0.27373,0.696663 0.51532,1.426384 0.78906,2.123047 -0.49253,0.604418 -1.01943,1.209036 -1.54492,1.814453 -0.2411,-0.696662 -0.48146,-1.393847 -0.75586,-2.089844 0.49252,-0.638719 0.98423,-1.242572 1.51172,-1.847656 z m -46.75782,0.07813 c 0.43891,0.494857 0.97707,0.988224 1.31641,1.583984 0.007,0.632391 -0.12008,1.266335 -0.17969,1.900391 -0.57078,-0.460557 -1.17585,-0.920531 -1.54883,-1.515625 0.0929,-0.667691 0.2526,-1.334028 0.41211,-1.96875 z m 40.38086,1.457031 c 0.30038,0.130208 0.60131,0.293953 0.90235,0.423828 0.003,0.233109 0.007,0.665427 0.01,0.865235 -0.26541,0.136534 -0.5304,0.238798 -0.82812,0.375 -0.1685,-0.164508 -0.5036,-0.460826 -0.70508,-0.625 0.19582,-0.368646 0.39098,-0.703386 0.62109,-1.039063 z m -34.70312,0.01367 c 0.1685,0.198143 0.54014,0.626312 0.70898,0.857422 -0.42892,0.337342 -0.89267,0.609082 -1.42383,0.78125 -0.0709,-0.33268 -0.20902,-0.962909 -0.27929,-1.294922 0.33201,-0.103234 0.66212,-0.240516 0.99414,-0.34375 z"
       style="fill:#ffffff" /><path
       fill="#ffffff"
       stroke="#ffffff"
       stroke-width="0.0312366"
       d="m -255.0606,-40.167338 c 0.49753,-0.104899 0.96574,0.156516 1.43429,0.284393 -0.12821,0.46755 -0.28872,0.969067 -0.45023,1.437283 -0.33435,-0.02997 -0.96707,-0.05661 -1.26778,-0.08625 -0.0383,-0.565456 -0.28007,-1.262785 0.28372,-1.635426 z"
       id="path21" /><path
       fill="#ffffff"
       stroke="#ffffff"
       stroke-width="0.0312366"
       d="m -276.43536,-39.566916 c 0.36499,-0.0706 0.7313,-0.107896 1.06431,-0.111559 0.0386,0.465885 0.0763,0.931436 0.0819,1.397654 -0.46621,0.03796 -0.8988,0.109895 -1.36335,0.181492 -0.005,-0.499519 -0.41327,-1.227818 0.21712,-1.467587 z"
       id="path22" /><path
       fill="#ffffff"
       stroke="#ffffff"
       stroke-width="0.0312366"
       d="m -300.55714,-37.438298 c 0.39062,-0.770592 1.05299,-1.177867 1.92115,-0.953749 0.005,0.499852 -0.023,0.965737 -0.0503,1.46559 -0.6657,0.07426 -1.33372,-0.118553 -1.87087,-0.511841 z"
       id="path23" /><path
       fill="#ffffff"
       stroke="#ffffff"
       stroke-width="0.0312366"
       d="m -253.17374,-38.122973 c 0.56445,-0.07293 1.09794,-0.07859 1.66373,-0.05128 0.004,0.299379 0.011,0.965738 0.0136,1.299084 -0.49819,0.07193 -0.99704,0.11056 -1.49589,0.148856 -0.0723,-0.465219 -0.14453,-0.930438 -0.18149,-1.396656 z"
       id="path24" /><path
       fill="#ffffff"
       stroke="#ffffff"
       stroke-width="0.0312366"
       d="m -292.90617,-13.843341 c 4.48468,-1.048324 9.07726,-1.331385 13.63654,-1.647414 6.45812,-0.237105 13.0208,-0.04263 19.29909,1.587805 1.67106,0.447902 3.47466,0.994376 4.68882,2.313107 -1.18452,1.411308 -3.08036,1.6324288 -4.74143,1.9834243 -3.35877,0.5361506 -6.7858,0.7402875 -10.18087,0.8771557 -6.82576,0.1408645 -13.72013,0.083253 -20.49161,-0.9753945 -2.13595,-0.3759715 -4.4374,-0.7173095 -6.18438,-2.1302835 0.88415,-1.342374 2.54521,-1.660068 3.97384,-2.0084 z"
       id="path41" /></g><g
     id="g4"><path
       id="path52"
       d="m -141.08989,144.66903 c -0.34125,0.004 -0.68225,0.0247 -1.03125,0.0781 -0.6234,0.87316 -0.97794,1.90718 -1.4668,2.87891 -1.6604,3.54825 -3.32073,7.06536 -4.98047,10.61328 0.99871,-0.0113 2.03092,0.0101 3.0293,-0.0352 0.45689,-0.8695 0.91453,-1.77294 1.3711,-2.67773 2.13128,0.0107 4.22842,-0.0131 6.35937,-0.0371 0.47588,0.89514 0.98573,1.78783 1.46094,2.68164 0.96673,-0.011 1.89764,-0.0209 2.83008,-0.0312 -2.14727,-4.50534 -4.39375,-8.97524 -6.54102,-13.44727 -0.34966,-0.0133 -0.69,-0.0271 -1.03125,-0.0234 z m -0.0215,4.1289 c 0.78191,1.42463 1.46384,2.91612 2.24609,4.37305 -1.43229,0.0153 -2.8656,-0.003 -4.29688,0.0117 0.71631,-1.43795 1.40108,-2.91118 2.05079,-4.38477 z"
       style="fill:#ffffff" /><path
       fill="#ffffff"
       stroke="#ffffff"
       stroke-width="0.0312366"
       d="m -131.73189,144.63359 c 0.9654,-0.0107 1.93147,-0.0216 2.92985,0.001 1.72833,2.77833 3.62317,5.45608 5.45175,8.23208 0.004,-2.69674 -0.0922,-5.39348 -0.0206,-8.05924 0.79357,-0.40794 1.79661,-0.15152 2.66144,-0.26109 0.015,4.52865 0.0313,9.05795 0.0486,13.62023 -0.7999,0.009 -1.63176,0.018 -2.4643,0.0273 -1.93114,-2.9435 -3.92821,-5.88567 -5.85836,-8.86148 -0.0343,2.96382 -0.002,5.9273 -0.003,8.89178 -0.89881,0.01 -1.79761,0.0196 -2.69741,0.029 -0.0496,-4.52831 -0.0659,-9.09025 -0.048,-13.61989 z"
       id="path53" /><path
       id="path54"
       d="m -110.91997,144.50496 c -1.99874,-0.0106 -3.96286,0.0439 -5.96094,0.0332 0.0832,4.56194 -0.10117,9.09407 -0.0176,13.62304 2.12929,-0.0906 4.29692,0.11751 6.39257,-0.17187 3.32447,-0.53649 6.18837,-3.63017 5.91797,-7.08984 0.19581,-3.43303 -3.0019,-6.39684 -6.33203,-6.39454 z m -0.93554,2.55274 c 1.06051,0.006 2.10284,0.14696 2.83984,0.99219 1.95046,1.67672 1.55456,5.11053 -0.5957,6.43359 -1.18953,0.87816 -2.72288,0.72849 -4.0879,0.74414 0.004,-2.7317 -0.0267,-5.42945 -0.0234,-8.16016 0.58756,0.0312 1.23088,-0.0134 1.86719,-0.01 z"
       style="fill:#ffffff" /></g><text
     xml:space="preserve"
     style="font-size:39.2348px;line-height:1;font-family:sans-serif;text-align:center;letter-spacing:2.10412px;text-anchor:middle;opacity:1;fill:#ffffff;stroke-width:1.22609"
     x="-126.75874"
     y="198.81387"
     id="text2"><tspan
       id="tspan2"
       x="-126.75874"
       y="198.81387"
       style="font-style:normal;font-variant:normal;font-weight:bold;font-stretch:normal;font-family:Montserrat;-inkscape-font-specification:'Montserrat Bold';letter-spacing:2.10412px;writing-mode:lr-tb;fill:#ffffff;stroke-width:1.22609">MAKE</tspan><tspan
       x="-125.70668"
       y="238.41058"
       id="tspan3"
       style="font-style:normal;font-variant:normal;font-weight:bold;font-stretch:normal;font-family:Montserrat;-inkscape-font-specification:'Montserrat Bold';letter-spacing:2.10412px;writing-mode:lr-tb;fill:#ffffff;stroke-width:1.22609">ASICs</tspan></text></g></svg>
