<?xml version="1.0" encoding="UTF-8" standalone="no"?>

<svg
   version="1.1"
   id="Layer_1"
   x="0px"
   y="0px"
   viewBox="0 0 200 250"
   xml:space="preserve"
   sodipodi:docname="tt_logo.svg"
   width="200"
   height="250"
   inkscape:version="1.4 (86a8ad7, 2024-10-11)"
   inkscape:export-filename="tt_logo.png"
   inkscape:export-xdpi="96"
   inkscape:export-ydpi="96"
   xmlns:inkscape="http://www.inkscape.org/namespaces/inkscape"
   xmlns:sodipodi="http://sodipodi.sourceforge.net/DTD/sodipodi-0.dtd"
   xmlns="http://www.w3.org/2000/svg"
   xmlns:svg="http://www.w3.org/2000/svg"><defs
   id="defs1" /><sodipodi:namedview
   id="namedview1"
   pagecolor="#ffffff"
   bordercolor="#666666"
   borderopacity="1.0"
   inkscape:showpageshadow="2"
   inkscape:pageopacity="0.0"
   inkscape:pagecheckerboard="0"
   inkscape:deskcolor="#d1d1d1"
   inkscape:zoom="2.485"
   inkscape:cx="105.6338"
   inkscape:cy="97.384306"
   inkscape:window-width="1920"
   inkscape:window-height="1130"
   inkscape:window-x="3833"
   inkscape:window-y="-6"
   inkscape:window-maximized="1"
   inkscape:current-layer="Layer_1" />
<rect
   style="fill:#000000;stroke-width:15.9513;stroke-linecap:round;stroke-linejoin:round"
   id="rect1"
   width="200"
   height="249.8994"
   x="0"
   y="0" /><g
   id="g1"
   transform="matrix(0.75075075,0,0,0.7513148,-156.00601,-72.426747)"
   style="fill:#ffffff">
	<path
   d="m 341,96.4 c -44.5,0 -83.9,21.9 -108.1,55.5 -7.9,11 -14.2,23.2 -18.5,36.4 h 21.6 52.1 v 90.1 h 39.3 v -24.3 h 22.7 v 87.8 c -3,0.3 -6.1,0.4 -9.2,0.4 -62.2,0 -112.8,-50.6 -112.8,-112.8 0,-10.3 1.4,-20.2 4,-29.6 h -21 c -2.2,9.5 -3.3,19.4 -3.3,29.6 0,73.4 59.7,133.1 133.1,133.1 3.1,0 6.1,-0.1 9.2,-0.3 1.7,-0.1 3.4,-0.3 5.1,-0.5 0.1,0 0.3,0 0.4,0 11.8,-1.3 23.1,-4.1 33.8,-8.3 v 0 c 0,0 0,0 0,0 V 254.1 H 428 V 217.7 H 327.5 V 188.2 H 366 V 151.8 H 259.3 c 20.5,-21.6 49.6,-35.1 81.7,-35.1 62.2,0 112.8,50.6 112.8,112.8 0,40.1 -21,75.4 -52.6,95.4 v 23.4 c 43.3,-22 73,-67 73,-118.8 C 474.1,156.1 414.4,96.4 341,96.4 Z"
   id="path1"
   style="fill:#ffffff" />
</g>
<text
   xml:space="preserve"
   style="font-size:42.6433px;line-height:1.25;font-family:sans-serif;text-align:center;text-anchor:middle;fill:#f9f9f9;stroke-width:1.3326"
   x="99.812607"
   y="242.28705"
   id="text1"><tspan
     sodipodi:role="line"
     id="tspan1"
     x="99.812607"
     y="242.28705"
     style="stroke-width:1.3326">TTIHP25A</tspan></text></svg>
